<svg width="39" height="40" viewBox="0 0 39 40" fill="none" xmlns="http://www.w3.org/2000/svg">
<path fillRule="evenodd" clipRule="evenodd" d="M19.2041 0.796875C29.8104 0.796875 38.408 9.39449 38.408 20.0002C38.408 30.6066 29.8104 39.2048 19.2041 39.2048C8.59818 39.2048 0 30.6066 0 20.0002C0 9.39449 8.59818 0.796875 19.2041 0.796875" fill="#FF9E1B"/>
<path fillRule="evenodd" clipRule="evenodd" d="M30.3011 28.0718V8.95703H25.4853L22.2891 14.1383H26.3118V28.0718H24.8225V31.4446H24.9895H26.3118H30.3011H31.6743H31.8413V28.0718H30.3011Z" fill="white"/>
<path fillRule="evenodd" clipRule="evenodd" d="M19.0985 19.7629L12.079 8.95703H7.76172V31.4446H11.7492V15.4864L18.9666 26.194H19.0985L25.2742 17.1207H20.8116L19.0985 19.7629Z" fill="white"/>
</svg>
